<svg
  xmlns="http://www.w3.org/2000/svg"
  viewBox="0 0 64 64"
  width="64"
  height="64"
>
  <!-- pitstop favicon — arc-ticks-redline-needle 270°.
       Hard-coded colors so the SVG renders correctly outside the app's
       theme context. Centre 32,33; radius 24; redline +95°→+135°.
       Triangular needle points at the redline boundary. -->
  <rect width="64" height="64" rx="12" fill="#0a0c10"/>
  <!-- Cool arc body: -135° → +95° -->
  <path d="M 15.03 50 A 24 24 0 1 1 55.86 39.04"
        stroke="#e7e9ee" stroke-width="3.5" stroke-linecap="butt"
        fill="none" opacity="0.92"/>
  <!-- Redline segment: +95° → +135° -->
  <path d="M 55.86 39.04 A 24 24 0 0 1 48.97 50"
        stroke="#ff5b3a" stroke-width="3.5" stroke-linecap="round"
        fill="none"/>
  <!-- Major ticks (cool) -->
  <line x1="15.03" y1="50"    x2="18.21" y2="46.82" stroke="#e7e9ee" stroke-width="1.4" stroke-linecap="round" opacity="0.9"/>
  <line x1="13.76" y1="38.27" x2="18.13" y2="37.10" stroke="#e7e9ee" stroke-width="1.4" stroke-linecap="round" opacity="0.9"/>
  <line x1="20.74" y1="22.74" x2="23.92" y2="25.92" stroke="#e7e9ee" stroke-width="1.4" stroke-linecap="round" opacity="0.9"/>
  <line x1="32"    y1="9"     x2="32"    y2="13.5"  stroke="#e7e9ee" stroke-width="1.4" stroke-linecap="round" opacity="0.9"/>
  <line x1="43.26" y1="22.74" x2="40.08" y2="25.92" stroke="#e7e9ee" stroke-width="1.4" stroke-linecap="round" opacity="0.9"/>
  <!-- Major ticks inside redline (accent) -->
  <line x1="50.24" y1="38.27" x2="45.87" y2="37.10" stroke="#ff5b3a" stroke-width="1.4" stroke-linecap="round"/>
  <line x1="48.97" y1="50"    x2="45.79" y2="46.82" stroke="#ff5b3a" stroke-width="1.4" stroke-linecap="round"/>
  <!-- Triangular needle: tip at 80% radius toward boundary tick -->
  <path d="M 46.59 37.22 L 31.45 34.07 L 32.55 31.93 Z" fill="#e7e9ee"/>
  <!-- Hub dot — slightly larger to anchor the needle -->
  <circle cx="32" cy="33" r="2.6" fill="#ff5b3a"/>
</svg>
